<svg xmlns="http://www.w3.org/2000/svg" width="256" height="256" viewBox="0 0 256 256">
  <defs>
    <linearGradient id="bg" x1="0%" y1="0%" x2="100%" y2="100%">
      <stop offset="0%" style="stop-color:#1a1a25;stop-opacity:1" />
      <stop offset="100%" style="stop-color:#0a0a0f;stop-opacity:1" />
    </linearGradient>
    <linearGradient id="accent" x1="0%" y1="0%" x2="100%" y2="100%">
      <stop offset="0%" style="stop-color:#3b82f6;stop-opacity:1" />
      <stop offset="100%" style="stop-color:#2563eb;stop-opacity:1" />
    </linearGradient>
  </defs>

  <!-- Background circle -->
  <circle cx="128" cy="128" r="120" fill="url(#bg)" stroke="#27272a" stroke-width="4"/>

  <!-- Chat bubble icon -->
  <path d="M68 80 L188 80 C196 80 200 84 200 92 L200 156 C200 164 196 168 188 168 L120 168 L88 196 L88 168 L68 168 C60 168 56 164 56 156 L56 92 C56 84 60 80 68 80 Z"
        fill="url(#accent)" />

  <!-- Dots representing AI processing -->
  <circle cx="100" cy="124" r="10" fill="#ffffff" opacity="0.9"/>
  <circle cx="128" cy="124" r="10" fill="#ffffff" opacity="0.7"/>
  <circle cx="156" cy="124" r="10" fill="#ffffff" opacity="0.5"/>

  <!-- Letter M for Moltbot -->
  <text x="128" y="220" text-anchor="middle" font-family="Arial, sans-serif" font-weight="bold" font-size="28" fill="#3b82f6">M</text>
</svg>
